<svg width="26" height="26" fill="none" xmlns="http://www.w3.org/2000/svg"><path d="M26 21.667A4.346 4.346 0 0121.667 26H4.333A4.346 4.346 0 010 21.667V4.333A4.346 4.346 0 014.333 0h17.334A4.346 4.346 0 0126 4.333v17.334z" fill="#020202"/><path d="M7.064 5.65h7.371c1.36 0 2.452.31 3.272.935.82.625 1.232 1.563 1.232 2.825 0 .765-.187 1.42-.561 1.963-.374.544-.91.969-1.606 1.266v.042c.935.2 1.644.642 2.124 1.326.48.688.722 1.546.722 2.583 0 .595-.106 1.151-.318 1.665a3.364 3.364 0 01-.999 1.338c-.454.374-1.032.672-1.741.893-.71.22-1.551.331-2.528.331H7.064V5.65zm2.656 6.352h4.333c.637 0 1.168-.179 1.593-.544.425-.366.637-.884.637-1.563 0-.765-.19-1.305-.573-1.615-.383-.31-.935-.467-1.657-.467H9.72v4.189zm0 6.648h4.694c.807 0 1.436-.208 1.878-.628.446-.417.671-1.011.671-1.776 0-.752-.22-1.326-.671-1.733-.45-.408-1.07-.604-1.878-.604H9.72v4.741z" fill="#fff"/></svg>