<svg width="19" height="26" fill="none" xmlns="http://www.w3.org/2000/svg"><g clip-path="url(#clip0)"><path d="M19 5.11l-1.73 18.799L9.487 26 1.73 23.912 0 5.11h19z" fill="#000"/><path d="M15.787 22.712l1.48-16.065H9.5v17.755l6.287-1.69z" fill="#7E6F6F"/><path d="M3.965 13.62l.213 2.306h5.323V13.62H3.965zM9.5 8.953H3.535l.216 2.306H9.5V8.953zm0 13.056v-2.4l-.01.003-2.65-.693-.17-1.84H4.285l.332 3.621 4.873 1.311.01-.002z" fill="#EBEBEB"/><path d="M4.473 0h2.88v1.168H5.678v1.168h1.677v1.168H4.473V0zM7.93 0h2.88v1.016H9.135v.203h1.677v2.336H7.93V2.488h1.676v-.203H7.93V0zm3.455 0h2.88v1.016H12.59v.203h1.677v2.336h-2.881V2.488h1.676v-.203h-1.676V0z" fill="#000"/><path d="M12.421 15.926l-.276 2.991-2.653.694v2.4l4.876-1.31.036-.39.56-6.071.057-.62.43-4.667H9.492v2.306h3.352l-.217 2.361H9.492v2.306h2.93z" fill="#fff"/></g><defs><clipPath id="clip0"><path fill="#fff" d="M0 0h19v26H0z"/></clipPath></defs></svg>