<svg width="27" height="26" fill="none" xmlns="http://www.w3.org/2000/svg"><g clip-path="url(#clip0)"><path d="M26.173 11.856L14.525.513a1.75 1.75 0 00-2.429 0L9.678 2.868l3.067 2.988a2.079 2.079 0 012.1.477c.57.557.73 1.36.484 2.057l2.957 2.88a2.08 2.08 0 012.112.472 1.954 1.954 0 010 2.815 2.083 2.083 0 01-2.892 0 1.954 1.954 0 01-.445-2.165l-2.757-2.686v7.068c.194.093.378.219.54.376a1.955 1.955 0 010 2.816 2.083 2.083 0 01-2.89 0 1.955 1.955 0 010-2.816c.197-.192.425-.337.669-.434V9.582a2.022 2.022 0 01-.67-.434 1.952 1.952 0 01-.44-2.176L8.49 4.026.503 11.803a1.643 1.643 0 000 2.367L12.15 25.513a1.75 1.75 0 002.43 0l11.593-11.29c.67-.653.67-1.713 0-2.366" fill="#000"/></g><defs><clipPath id="clip0"><path fill="#fff" d="M0 0h26.963v26H0z"/></clipPath></defs></svg>