<svg width="16" height="34" fill="none" xmlns="http://www.w3.org/2000/svg"><path fill-rule="evenodd" clip-rule="evenodd" d="M7.61 26.83c-1.991 0-3.53-.3-4.27-.478a8.196 8.196 0 01-1.222-.378l.987 1.686.386 5.27c0 .591 1.877 1.07 4.192 1.07 2.315 0 4.192-.479 4.192-1.07l.306-5.327.934-1.634a8.1 8.1 0 01-1.233.383c-.74.178-2.28.477-4.271.477zm5.538-17.15c-1.462.204-3.403.317-5.464.317-2.061 0-4.002-.113-5.464-.317-.724-.101-1.297-.22-1.703-.354a2.466 2.466 0 01-.418-.174l.905 8.337a8.142 8.142 0 01.966-2.081c.165-.25.34-.479.525-.688.186-.21.376-.39.571-.54.196-.151.393-.269.592-.354.199-.085.396-.127.591-.127.225 0 .443.061.653.184.21.123.406.322.59.598a.478.478 0 01.08.186c.01.063.016.123.016.178a.474.474 0 01-.095.312.283.283 0 01-.224.114c-.08 0-.153-.042-.22-.125a2.372 2.372 0 01-.229-.358.865.865 0 00-.261-.305.55.55 0 00-.31-.095c-.173 0-.358.072-.554.216a3.22 3.22 0 00-.584.568 6.233 6.233 0 00-.555.809 8.432 8.432 0 00-.469.93 6.65 6.65 0 00-.324.94 3.34 3.34 0 00-.12.833c0 .082.005.166.016.253a.852.852 0 00.063.235c.03.07.073.128.126.173a.3.3 0 00.202.068c.092 0 .195-.03.312-.092.116-.061.236-.142.361-.242s.25-.212.377-.338a5.998 5.998 0 00.641-.753 2.33 2.33 0 00.19-.31l.344-1.032a.485.485 0 01.165-.237.365.365 0 01.21-.07c.034 0 .069.005.103.017a.26.26 0 01.158.152c.016.04.024.085.024.138 0 .14-.012.272-.037.395a3.141 3.141 0 01-.095.36 6.216 6.216 0 01-.127.354 8.727 8.727 0 00-.138.371.847.847 0 00-.053.138 22.27 22.27 0 00-.215.686l-.134.443a35.821 35.821 0 00-.245.837 129.747 129.747 0 00-.124.435 1.03 1.03 0 01-.156.318.59.59 0 01-.122.128.225.225 0 01-.137.05c-.08 0-.137-.026-.173-.079-.036-.052-.053-.15-.053-.29v-.061c0-.02 0-.043.003-.066a1.56 1.56 0 01.056-.264 25.354 25.354 0 01.28-.942l.15-.468a7.353 7.353 0 01-.426.438 4.6 4.6 0 01-.471.39c-.161.116-.323.21-.486.284a1.15 1.15 0 01-.471.11.842.842 0 01-.447-.115c-.023-.014-.044-.029-.065-.044l.504 5.284c.131.33 2.602 1.137 5.859 1.137 3.258 0 5.73-.808 5.858-1.137l.724-6.283-.174.16a7.58 7.58 0 01-.588.499 2.65 2.65 0 01-.539.323 1.399 1.399 0 01-.564.114c-.188 0-.333-.041-.435-.123a.409.409 0 01-.154-.338v-.033c0-.01 0-.023.003-.038a.798.798 0 01.115-.303c.067-.114.148-.232.241-.355.094-.123.194-.248.3-.374.107-.126.205-.245.296-.358.09-.112.165-.215.224-.31a.455.455 0 00.089-.228.104.104 0 00-.037-.083c-.025-.02-.066-.03-.123-.03-.098 0-.2.025-.305.076-.105.051-.21.12-.312.206a2.817 2.817 0 00-.3.297 4.357 4.357 0 00-.508.71 5.11 5.11 0 00-.243.471l-.09.198a12.85 12.85 0 01-.101.226 7.069 7.069 0 00-.098.22l-.08.184-.05.112a2.828 2.828 0 00-.062.15 32.072 32.072 0 00-.215.566l-.115.308-.094.255a2.47 2.47 0 00-.052.149 1.595 1.595 0 01-.087.215.888.888 0 01-.115.178.528.528 0 01-.148.123.379.379 0 01-.188.046.365.365 0 01-.22-.064c-.058-.042-.087-.123-.087-.243 0-.059.007-.119.022-.18.015-.062.033-.123.055-.183.023-.06.046-.118.07-.175l.064-.165c.134-.293.27-.587.408-.88.138-.295.271-.586.399-.875l.076-.179-.023.023a4.93 4.93 0 01-.48.41c-.16.12-.318.214-.475.284a1.12 1.12 0 01-.458.106.592.592 0 01-.254-.049.424.424 0 01-.163-.131.527.527 0 01-.087-.198.702.702 0 01-.013-.08 2.659 2.659 0 01-.584.36 1 1 0 01-.4.098.38.38 0 01-.29-.119c-.074-.079-.11-.214-.11-.404 0-.135.019-.291.058-.47a2.4 2.4 0 01-.24.347 2.117 2.117 0 01-.33.32 1.65 1.65 0 01-.416.236c-.153.06-.32.09-.5.09a.898.898 0 01-.236-.031.494.494 0 01-.336-.305.825.825 0 01-.037-.449c.01-.086.042-.222.095-.408.053-.186.135-.427.246-.722.112-.296.269-.655.471-1.076a.592.592 0 01.18-.24.373.373 0 01.432-.009c.032.022.058.05.078.084a.22.22 0 01.03.116c0 .03-.004.057-.011.084-.013.05-.04.114-.08.195-.04.08-.088.173-.143.277a24.33 24.33 0 00-.172.336c-.06.12-.117.244-.169.373a3.73 3.73 0 00-.133.393 1.694 1.694 0 00-.063.389.29.29 0 00.037.145c.024.044.065.066.122.066.16 0 .314-.053.46-.158.146-.106.28-.237.404-.393a3.78 3.78 0 00.336-.506c.1-.18.183-.344.25-.494.047-.1.088-.206.124-.32.036-.115.075-.22.117-.317a.975.975 0 01.145-.241.256.256 0 01.203-.097c.09 0 .16.034.212.101a.384.384 0 01.078.242.687.687 0 01-.05.217 6.206 6.206 0 01-.127.317l-.164.38c-.06.134-.115.271-.165.41a4.08 4.08 0 00-.127.409 1.53 1.53 0 00-.05.37c0 .106.055.159.163.159a.711.711 0 00.286-.08c.114-.052.233-.126.358-.221l.094-.075a3.05 3.05 0 01.123-.397c.086-.229.174-.456.263-.68.09-.226.17-.433.245-.62l1.123-2.833a.475.475 0 01.18-.242.43.43 0 01.228-.07.33.33 0 01.21.075c.063.05.095.13.095.241a.493.493 0 01-.032.167 2.028 2.028 0 01-.08.189 71.512 71.512 0 00-.796 1.886l-.3.74a89.41 89.41 0 00-.495 1.243 2.474 2.474 0 00-.08.235.865.865 0 00-.038.24.21.21 0 00.022.105c.015.027.043.04.085.04a.48.48 0 00.195-.055c.078-.037.162-.085.252-.145.09-.06.184-.129.282-.207a8.554 8.554 0 00.803-.722.167.167 0 01.057-.038 7.16 7.16 0 00.113-.366l.082-.224c.034-.097.074-.192.118-.286.045-.093.095-.175.15-.243.056-.07.116-.104.18-.104.1 0 .171.023.216.068.044.046.066.113.066.2a2.862 2.862 0 01-.05.325.558.558 0 01-.024.084c.092-.1.19-.199.297-.297.106-.098.216-.186.33-.265.114-.08.23-.144.349-.194a.864.864 0 01.599-.04.71.71 0 01.214.104.538.538 0 01.154.171.47.47 0 01.06.24.94.94 0 01-.091.384 2.76 2.76 0 01-.228.41 5.13 5.13 0 01-.297.402c-.106.13-.206.25-.298.356l-.234.273c-.063.074-.096.125-.098.151 0 .035.01.064.033.086.022.022.06.033.111.033a.427.427 0 00.186-.07c.081-.047.196-.128.343-.244.147-.116.334-.271.56-.466.155-.133.337-.292.541-.473l.98-9.083a2.454 2.454 0 01-.418.174c-.406.134-.979.253-1.703.354zm-5.47-2.155C3.437 7.526 0 8 0 8.585s3.437 1.059 7.677 1.059 7.677-.474 7.677-1.059-3.437-1.059-7.677-1.059zm3.066 1.369c0 .137-.409.248-.913.248s-.912-.111-.912-.248c0-.138.408-.25.912-.25s.913.112.913.25z" fill="#000"/><path fill-rule="evenodd" clip-rule="evenodd" d="M9.103 8.785a.041.041 0 00-.007.022c0 .089.329.16.734.16.406 0 .735-.071.735-.16l.959-3.89L15.339.89a.045.045 0 00.003-.004c.081-.09-.083-.374-.354-.616-.272-.242-.566-.324-.657-.232l-.002.002-4.07 4.283-1.156 4.463z" fill="#000"/></svg>