<svg width="26" height="26" fill="none" xmlns="http://www.w3.org/2000/svg"><path d="M5.465 23.912L3.79 5.11h18.42l-1.678 18.799L12.988 26l-7.523-2.088z" fill="#000"/><path d="M13 24.402l6.095-1.69L20.53 6.647H13v17.755z" fill="#000"/><path d="M13 13.62H9.947l-.211-2.361h3.262V8.953H7.217l.055.619.567 6.354h5.16V13.62zm-.001 5.99l-.01.002-2.569-.693-.164-1.84H7.941l.323 3.621 4.724 1.311.01-.002v-2.4z" fill="#EBEBEB"/><path d="M5.504 0h1.172v1.158h1.072V0H8.92v3.506H7.748V2.332H6.676v1.174H5.504V0zm4.956 1.163H9.427V0h3.236v1.163H11.63v2.343h-1.17V1.163zM13.178 0H14.4l.751 1.232L15.902 0h1.223v3.506h-1.167V1.768l-.807 1.247h-.02l-.807-1.247v1.738h-1.146V0zm4.529 0h1.172v2.347h1.648v1.16h-2.82V0z" fill="#000"/><path d="M12.99 13.62v2.307h2.84l-.268 2.99-2.572.694v2.4l4.728-1.31.034-.39.542-6.071.056-.62h-5.36zm0-4.667v2.306h5.57l.047-.518.105-1.17.055-.618H12.99z" fill="#fff"/></svg>