<svg width="26" height="27" fill="none" xmlns="http://www.w3.org/2000/svg"><path d="M1.651 6.303c-2.302 3.545-2.015 8.156-.257 11.923.042.09.086.18.13.268.027.057.053.114.081.17l.052.097.091.176c.055.103.111.206.168.308l.096.17c.063.11.128.218.195.326.027.046.054.093.083.137.092.147.185.293.282.437l.008.01.047.07c.084.123.17.245.257.366l.097.132c.078.105.157.21.238.313l.09.116a16.199 16.199 0 00.338.413l.013.014a16.387 16.387 0 00.444.498c.088.095.178.188.269.282.036.037.073.076.11.112.12.122.243.242.368.359.002.002.003.004.006.005a17.896 17.896 0 00.398.361l.138.118a15.002 15.002 0 00.855.682c.01.008.02.017.031.024.1.073.202.145.304.215.043.032.087.064.131.094.157.106.315.211.476.313l.131.079c.118.073.237.145.357.215.065.037.132.072.197.108.086.048.17.096.256.142l.06.031.104.055c.133.068.268.135.404.2l.086.041c.156.073.313.144.472.21l.115.05c.147.06.296.12.446.176l.056.02c.164.062.33.12.497.175l.12.038c.17.055.338.12.513.155C22.136 28.683 25.37 19.34 25.37 19.34c-2.715 3.79-7.536 4.79-12.103 3.677-.173-.041-.341-.099-.51-.153a15.888 15.888 0 01-.618-.212l-.068-.026a17.707 17.707 0 01-.433-.172l-.12-.051a12.776 12.776 0 01-.468-.209l-.094-.044a17.432 17.432 0 01-.394-.196l-.114-.059c-.102-.053-.204-.11-.304-.166-.068-.038-.137-.075-.204-.114-.123-.07-.245-.145-.365-.22l-.124-.073c-.16-.102-.319-.207-.476-.313l-.128-.091a12.573 12.573 0 01-.339-.242c-.037-.026-.073-.055-.109-.082a19.065 19.065 0 01-.32-.248l-.142-.115a14.737 14.737 0 01-.417-.352 18.605 18.605 0 01-.36-.325c-.012-.012-.026-.023-.04-.035a18.714 18.714 0 01-.377-.369c-.037-.037-.072-.072-.107-.11a10.736 10.736 0 01-.272-.285l-.106-.114c-.114-.124-.225-.25-.334-.378l-.016-.019a14.374 14.374 0 01-.67-.848 18.59 18.59 0 01-.37-.52C2.329 13.17 1.418 8.06 3.445 3.861" fill="#000"/><path d="M8.799 3.316c-1.665 2.567-1.574 6.003-.276 8.717.218.455.463.897.737 1.317.249.383.525.839.856 1.146.12.142.246.28.374.416l.098.104c.125.13.251.257.382.38l.015.014.004.004c.145.136.294.267.446.395l.101.085a11.022 11.022 0 00.48.376c.07.051.142.1.213.15.034.023.066.049.1.071.114.078.229.154.346.227l.048.03c.101.062.204.124.306.183.036.022.072.04.109.06l.213.12a10.165 10.165 0 00.478.238c.032.015.066.029.099.043.12.055.242.108.365.16l.157.06c.11.045.223.085.335.126l.152.052c.16.053.318.12.485.15 8.595 1.526 10.58-5.565 10.58-5.565-1.79 2.76-5.253 4.078-8.95 3.05a9.676 9.676 0 01-.633-.202 10.61 10.61 0 01-.86-.345l-.1-.045c-.151-.07-.3-.146-.448-.223-.076-.04-.15-.082-.225-.122-.043-.025-.086-.048-.13-.072a14.38 14.38 0 01-.285-.172l-.067-.041a10.78 10.78 0 01-.345-.225c-.035-.024-.069-.05-.104-.075a12.8 12.8 0 01-.223-.158 11.53 11.53 0 01-.464-.364l-.105-.088c-1.618-1.369-2.9-3.24-3.51-5.36-.64-2.2-.502-4.67.605-6.673" fill="#000"/><path d="M14.806 1.085c-.981 1.547-1.078 3.47-.397 5.178a7.018 7.018 0 003.907 3.912c.071.028.142.053.213.08l.095.03c.1.035.201.075.306.096 4.745.982 6.033-2.61 6.375-3.138-1.127 1.74-3.022 2.157-5.347 1.552a6.682 6.682 0 01-2.402-1.25c-2.08-1.69-3.373-4.917-2.015-7.545" fill="#000"/></svg>