<svg width="23" height="26" fill="none" xmlns="http://www.w3.org/2000/svg"><path d="M0 1.625v22.75h23V1.625H0zm12.517 17.743c0 2.214-1.315 3.225-3.23 3.225-1.73 0-2.731-.884-3.244-1.956l1.76-1.05c.34.593.647 1.096 1.392 1.096.708 0 1.16-.274 1.16-1.346v-7.266h2.162v7.297zm5.113 3.225c-2.007 0-3.306-.945-3.938-2.184l1.761-1.005c.462.746 1.068 1.3 2.13 1.3.894 0 1.469-.442 1.469-1.057 0-.731-.585-.99-1.576-1.422l-.54-.228c-1.56-.655-2.592-1.483-2.592-3.225 0-1.604 1.238-2.823 3.163-2.823 1.376 0 2.361.472 3.07 1.711l-1.684 1.067c-.37-.655-.77-.915-1.391-.915-.632 0-1.032.397-1.032.915 0 .64.4.898 1.33 1.3l.538.228c1.838.777 2.87 1.574 2.87 3.362 0 1.92-1.53 2.976-3.578 2.976z" fill="#000"/></svg>