<svg width="34" height="25" fill="none" xmlns="http://www.w3.org/2000/svg"><path d="M34 7.513c-.013-1.462-2.657-2.125-9.503-2.125C8.436 5.388 4.361 4.688 0 0c1.835 2.814 2.838 8.093 19.815 7.83 17.713-.278 6.907 4.665 3.763 10.25C29.248 12.913 33.983 9.506 34 7.535v-.02zm-22.57 15.01C11.429 23.882 10.335 25 9.004 25c-1.344 0-2.43-1.11-2.43-2.477v-.002c0-1.36 1.096-2.48 2.429-2.48h.001c1.34 0 2.426 1.11 2.426 2.482zm11.06 0c0 1.359-1.094 2.477-2.425 2.477-1.342 0-2.43-1.11-2.43-2.477v-.002c0-1.36 1.097-2.48 2.429-2.48h.001c1.34 0 2.426 1.11 2.426 2.482z" fill="url(#paint0_linear)"/><defs><linearGradient id="paint0_linear" x1="-45.111" y1="24.853" x2="-45.111" y2="0" gradientUnits="userSpaceOnUse"><stop/><stop offset="1" stop-color="#828282"/></linearGradient></defs></svg>