<svg width="26" height="23" fill="none" xmlns="http://www.w3.org/2000/svg"><g clip-path="url(#clip0)" fill="#000"><path d="M24.603 11.443c0-1.598-2.011-3.112-5.095-4.051.712-3.128.396-5.616-.998-6.413a2.175 2.175 0 00-1.107-.275v1.097c.228 0 .41.044.564.127.672.384.963 1.844.736 3.723-.054.462-.143.949-.252 1.446a24.054 24.054 0 00-3.138-.536 24.02 24.02 0 00-2.055-2.46c1.61-1.49 3.123-2.305 4.15-2.305V.699c-1.358 0-3.137.964-4.936 2.636C10.674 1.673 8.895.719 7.536.719v1.096c1.023 0 2.54.812 4.15 2.292a23.243 23.243 0 00-2.04 2.454c-1.117.118-2.174.3-3.143.54a14.77 14.77 0 01-.257-1.426c-.232-1.878.055-3.338.722-3.727.148-.088.34-.128.568-.128V.724c-.415 0-.79.088-1.117.275-1.388.797-1.7 3.28-.983 6.397C2.363 8.341.36 9.85.36 11.443c0 1.598 2.011 3.113 5.095 4.052-.712 3.128-.396 5.616.998 6.412a2.18 2.18 0 001.112.276c1.358 0 3.137-.964 4.936-2.636 1.798 1.662 3.577 2.616 4.936 2.616.415 0 .79-.088 1.117-.275 1.388-.797 1.7-3.28.983-6.398 3.064-.939 5.065-2.453 5.065-4.047zm-6.434-3.28c-.182.635-.41 1.289-.667 1.943a26.504 26.504 0 00-1.359-2.33c.702.102 1.38.23 2.026.388zM15.906 13.4c-.385.664-.78 1.294-1.19 1.879a25.842 25.842 0 01-4.457.005 25.558 25.558 0 01-2.224-3.826 26.17 26.17 0 012.214-3.84 25.83 25.83 0 014.457-.005 25.59 25.59 0 012.224 3.826 27.534 27.534 0 01-1.024 1.961zm1.596-.639c.267.66.495 1.318.682 1.957a22.26 22.26 0 01-2.036.394 27.145 27.145 0 001.354-2.35zm-5.01 5.247c-.46-.472-.92-.998-1.374-1.573.445.02.9.034 1.36.034.464 0 .923-.01 1.373-.035a19.21 19.21 0 01-1.359 1.574zm-3.676-2.896a22.39 22.39 0 01-2.026-.389c.183-.634.41-1.288.667-1.942.202.393.415.787.647 1.18.232.393.47.777.712 1.15zm3.651-10.233c.46.472.92.998 1.374 1.573-.445-.02-.9-.034-1.359-.034-.464 0-.924.01-1.374.034.445-.575.905-1.101 1.36-1.573zM8.811 7.775a27.144 27.144 0 00-1.354 2.346 21.01 21.01 0 01-.682-1.957c.647-.153 1.33-.286 2.036-.389zm-4.472 6.157c-1.75-.743-2.88-1.717-2.88-2.489 0-.772 1.13-1.75 2.88-2.488.425-.182.89-.344 1.369-.496.281.963.652 1.966 1.111 2.994a23.215 23.215 0 00-1.096 2.98c-.49-.152-.954-.32-1.384-.501zm2.658 7.026c-.672-.383-.963-1.844-.736-3.722.054-.462.143-.949.252-1.446.969.236 2.026.418 3.138.536.667.91 1.359 1.736 2.055 2.459-1.61 1.49-3.123 2.306-4.15 2.306a1.185 1.185 0 01-.559-.133zm11.72-3.747c.233 1.879-.053 3.34-.72 3.728-.149.088-.341.128-.569.128-1.023 0-2.54-.812-4.15-2.292a23.245 23.245 0 002.04-2.454c1.117-.118 2.175-.3 3.143-.54.114.496.203.973.257 1.43zm1.903-3.28c-.425.183-.89.345-1.368.497a23.555 23.555 0 00-1.112-2.994 23.21 23.21 0 001.097-2.98c.489.152.953.32 1.388.501 1.75.743 2.88 1.716 2.88 2.488-.004.772-1.136 1.751-2.885 2.489z"/><path d="M12.477 13.69a2.253 2.253 0 002.258-2.246 2.253 2.253 0 00-2.258-2.248 2.253 2.253 0 00-2.258 2.248 2.253 2.253 0 002.258 2.247z"/></g><defs><clipPath id="clip0"><path fill="#fff" d="M0 0h26v23H0z"/></clipPath></defs></svg>