<svg width="29" height="29" fill="none" xmlns="http://www.w3.org/2000/svg"><path d="M19.025 18.966a1.629 1.629 0 00-.174-3.248h-.058a1.623 1.623 0 00-1.566 1.682c.029.435.203.812.464 1.073-.986 1.943-2.494 3.364-4.756 4.553-1.537.812-3.132 1.102-4.727.899-1.305-.174-2.32-.754-2.958-1.711-.928-1.421-1.015-2.958-.232-4.495.55-1.102 1.42-1.914 1.972-2.32a15.645 15.645 0 01-.377-1.479c-4.205 3.045-3.77 7.163-2.494 9.106.957 1.45 2.9 2.349 5.046 2.349.58 0 1.16-.058 1.74-.203 3.712-.725 6.525-2.929 8.12-6.206z" fill="#000"/><path d="M24.129 15.37c-2.204-2.581-5.452-4.002-9.164-4.002h-.464a1.594 1.594 0 00-1.421-.87h-.058a1.623 1.623 0 00-1.566 1.682c.029.87.754 1.566 1.624 1.566h.058a1.634 1.634 0 001.421-.986h.522c2.204 0 4.292.638 6.177 1.885 1.45.957 2.494 2.204 3.074 3.712.493 1.218.464 2.407-.058 3.422-.812 1.537-2.175 2.378-3.973 2.378-1.16 0-2.262-.348-2.842-.609-.319.29-.899.754-1.305 1.044 1.247.58 2.523.899 3.741.899 2.784 0 4.843-1.537 5.626-3.074.84-1.682.783-4.582-1.392-7.047z" fill="#000"/><path d="M9.397 19.46c.03.87.754 1.565 1.624 1.565h.058a1.623 1.623 0 001.566-1.682 1.629 1.629 0 00-1.624-1.566h-.058c-.058 0-.145 0-.203.03-1.189-1.973-1.682-4.119-1.508-6.439.116-1.74.696-3.248 1.711-4.495.841-1.073 2.465-1.595 3.567-1.624 3.074-.058 4.38 3.77 4.466 5.307.377.087 1.015.29 1.45.435-.348-4.698-3.248-7.134-6.032-7.134-2.61 0-5.017 1.885-5.974 4.67-1.334 3.711-.464 7.278 1.16 10.091-.145.203-.232.522-.203.841z" fill="#000"/></svg>