<svg width="30" height="22" fill="none" xmlns="http://www.w3.org/2000/svg"><g clip-path="url(#clip0)"><path d="M25.816 12.644a6.318 6.318 0 00-2.717.616c-.28-.541-.558-1.023-.608-1.377-.055-.412-.12-.664-.055-1.157.066-.493.362-1.195.357-1.249-.006-.053-.066-.305-.669-.31-.602-.006-1.122.112-1.183.267-.06.156-.175.51-.252.874-.104.536-1.204 2.448-1.834 3.45-.203-.39-.378-.734-.416-1.007-.055-.412-.12-.664-.055-1.157.066-.493.361-1.195.356-1.249-.006-.053-.066-.305-.668-.31-.603-.006-1.123.112-1.183.267-.06.156-.126.52-.252.874-.126.353-1.588 3.547-1.972 4.372-.197.423-.366.76-.487.991 0 0-.006.016-.022.043a14.09 14.09 0 01-.164.305v.006c-.082.145-.17.278-.214.278-.033 0-.093-.385.011-.91.22-1.11.74-2.835.734-2.894 0-.032.099-.332-.34-.487-.427-.156-.58.101-.618.101-.039 0-.066.091-.066.091s.476-1.94-.91-1.94c-.864 0-2.058.928-2.65 1.764-.372.198-1.166.621-2.015 1.077-.323.176-.657.353-.97.52-.021-.022-.043-.049-.065-.07-1.676-1.752-4.776-2.99-4.644-5.342.05-.857.35-3.108 5.953-5.84 4.61-2.224 8.28-1.608 8.915-.242.91 1.95-1.966 5.573-6.73 6.098-1.818.198-2.771-.488-3.012-.745-.252-.268-.29-.284-.384-.23-.153.08-.054.321 0 .46.143.365.729 1.008 1.72 1.324.876.279 3.007.434 5.586-.541 2.886-1.093 5.142-4.131 4.48-6.676C18.11.106 13.729-.746 9.583.696 7.12 1.553 4.446 2.903 2.524 4.66.24 6.75-.12 8.566.027 9.327c.531 2.7 4.337 4.458 5.86 5.76-.077.043-.148.08-.208.113-.762.37-3.664 1.854-4.387 3.423-.822 1.78.131 3.054.761 3.226 1.955.53 3.965-.423 5.044-1.999 1.079-1.575.947-3.622.449-4.56a.112.112 0 00-.022-.031l.597-.343a29.28 29.28 0 011.1-.606c-.185.498-.322 1.093-.388 1.95-.082 1.008.34 2.315.893 2.83.246.225.536.23.723.23.646 0 .936-.525 1.26-1.147.393-.76.75-1.645.75-1.645s-.444 2.39.76 2.39c.439 0 .882-.557 1.08-.841v.005l.032-.053.072-.113v-.01c.175-.3.57-.981 1.155-2.112.756-1.457 1.484-3.279 1.484-3.279s.066.445.29 1.184c.132.434.406.911.625 1.372-.175.241-.285.375-.285.375l.005.005c-.142.183-.295.38-.465.574-.597.696-1.309 1.495-1.407 1.725-.115.273-.088.472.131.632.159.118.444.134.734.118a3.43 3.43 0 001.1-.246c.29-.102.63-.258.948-.488.586-.423.942-1.029.91-1.827-.017-.44-.165-.879-.346-1.291.055-.075.104-.15.159-.225.925-1.324 1.643-2.776 1.643-2.776s.066.445.29 1.184c.11.376.334.783.531 1.18-.87.69-1.407 1.494-1.599 2.02-.345.974-.076 1.414.433 1.516.23.048.558-.06.8-.161a3.671 3.671 0 001.012-.51c.587-.423 1.15-1.012 1.118-1.81a3.362 3.362 0 00-.252-1.072c.74-.3 1.692-.466 2.908-.327 2.607.3 3.121 1.892 3.023 2.561-.099.67-.646 1.034-.827 1.147-.18.113-.241.15-.225.23.022.118.11.113.263.091.214-.037 1.37-.54 1.419-1.773.082-1.575-1.452-3.295-4.163-3.28zm-20.11 6.633c-.865.922-2.07 1.27-2.59.975-.559-.316-.34-1.677.722-2.652.647-.595 1.48-1.147 2.032-1.484.126-.075.312-.182.537-.316a.772.772 0 01.06-.032l.132-.08c.388 1.392.016 2.62-.893 3.59zm6.298-4.19c-.301.718-.931 2.556-1.314 2.454-.33-.086-.532-1.479-.066-2.856.235-.69.734-1.516 1.024-1.838.47-.514.991-.685 1.117-.476.159.273-.575 2.266-.761 2.716zM17.2 17.52c-.126.064-.246.107-.301.075-.038-.022.055-.107.055-.107s.651-.686.909-.997c.148-.182.323-.397.509-.638v.07c0 .82-.81 1.372-1.172 1.597zm4.009-.895c-.093-.064-.077-.279.235-.948.12-.263.405-.702.893-1.126.055.172.093.338.088.493-.006 1.034-.762 1.42-1.216 1.58z" fill="#000"/></g><defs><clipPath id="clip0"><path fill="#fff" d="M0 0h30v22H0z"/></clipPath></defs></svg>