<svg width="26" height="26" fill="none" xmlns="http://www.w3.org/2000/svg"><g clip-path="url(#clip0)" fill="#000"><path d="M1.848 13c0 4.414 2.565 8.229 6.285 10.037L2.813 8.46A11.11 11.11 0 001.848 13zm18.681-.563c0-1.378-.495-2.333-.92-3.076-.566-.918-1.095-1.696-1.095-2.615 0-1.025.777-1.98 1.872-1.98.05 0 .097.007.145.01A11.111 11.111 0 0013 1.847a11.14 11.14 0 00-9.318 5.027c.261.007.508.013.717.013 1.167 0 2.973-.142 2.973-.142.6-.035.672.848.071.92 0 0-.604.07-1.276.105l4.06 12.08 2.441-7.32-1.737-4.76c-.6-.035-1.17-.106-1.17-.106-.6-.036-.53-.954.07-.919 0 0 1.843.142 2.939.142 1.166 0 2.972-.142 2.972-.142.601-.035.672.848.071.919 0 0-.605.07-1.276.106l4.03 11.988 1.113-3.717c.482-1.542.849-2.65.849-3.605z"/><path d="M13.196 13.975L9.85 23.698a11.152 11.152 0 006.854-.178.98.98 0 01-.08-.153l-3.428-9.392zm9.589-6.325c.048.354.075.736.075 1.146 0 1.132-.211 2.404-.848 3.995l-3.407 9.849A11.147 11.147 0 0024.151 13a11.09 11.09 0 00-1.366-5.35z"/><path d="M13 0C5.832 0 0 5.832 0 13c0 7.169 5.832 13 13 13 7.169 0 13.002-5.831 13.002-13 0-7.168-5.833-13-13.002-13zm0 25.404C6.16 25.404.596 19.84.596 13S6.161.596 13 .596C19.84.596 25.404 6.16 25.404 13S19.84 25.404 13 25.404z"/></g><defs><clipPath id="clip0"><path fill="#fff" d="M0 0h26v26H0z"/></clipPath></defs></svg>