<svg width="172" height="16" fill="none" xmlns="http://www.w3.org/2000/svg"><path d="M7.824 3.807L1.408 8.21v.053l6.416 4.341v.81L.661 8.543v-.589l7.163-4.957v.809zm144.758 11.838h-.624L156.44.318h.624l-4.482 15.329zm11.822-11.838v-.809l7.163 4.957v.58l-7.163 4.878v-.817l6.416-4.342V8.2l-6.416-4.394z" fill="#B5B5B5"/><path d="M15.718 9.555h1.204c.064.761.425 1.38 1.081 1.854.656.469 1.48.703 2.47.703.949 0 1.728-.231 2.338-.694.615-.463.922-1.052.922-1.767 0-.591-.213-1.072-.641-1.441-.428-.375-1.113-.683-2.057-.923l-1.573-.404c-1.178-.299-2.04-.71-2.584-1.23-.54-.522-.809-1.199-.809-2.03 0-1.02.41-1.858 1.23-2.515.821-.662 1.858-.993 3.112-.993 1.23 0 2.253.328 3.068.985.82.65 1.248 1.48 1.283 2.487h-1.204a2.297 2.297 0 00-.958-1.723c-.58-.44-1.322-.659-2.224-.659-.885 0-1.617.223-2.197.668-.574.44-.861 1.008-.861 1.705 0 .545.207.99.623 1.336.417.34 1.093.63 2.03.87l1.372.352c1.277.322 2.2.747 2.768 1.274.569.527.853 1.23.853 2.11 0 1.113-.416 2.006-1.248 2.68-.832.668-1.948 1.002-3.349 1.002-1.324 0-2.414-.334-3.27-1.002-.855-.674-1.315-1.555-1.38-2.645zM32.392.317h4.315c1.213 0 2.194.364 2.944 1.09.75.727 1.125 1.679 1.125 2.857 0 1.177-.377 2.132-1.133 2.865-.756.726-1.738 1.09-2.945 1.09h-3.11V13h-1.196V.317zm1.195 1.073v5.756h2.839c.973 0 1.734-.254 2.285-.764.557-.51.835-1.216.835-2.118 0-.903-.275-1.606-.826-2.11-.55-.51-1.316-.764-2.294-.764h-2.839zM55.72 11.91V13h-7.55V.317h1.196V11.91h6.354zM71.514 13l-1.406-3.885h-5.326L63.375 13h-1.274L66.847.317h1.195L72.78 13h-1.266zM67.418 1.803l-2.276 6.275h4.605l-2.276-6.275h-.053zM83.468 13h-1.195L77.527.317H78.8l4.043 11.189h.053L86.949.317h1.265L83.468 13zm11.067-3.445h1.204c.064.761.425 1.38 1.08 1.854.657.469 1.48.703 2.47.703.95 0 1.729-.231 2.338-.694.616-.463.923-1.052.923-1.767 0-.591-.214-1.072-.641-1.441-.428-.375-1.114-.683-2.057-.923l-1.573-.404c-1.178-.299-2.04-.71-2.584-1.23-.54-.522-.809-1.199-.809-2.03 0-1.02.41-1.858 1.23-2.515.821-.662 1.858-.993 3.112-.993 1.23 0 2.253.328 3.067.985.821.65 1.248 1.48 1.284 2.487h-1.205a2.292 2.292 0 00-.958-1.723c-.58-.44-1.321-.659-2.223-.659-.885 0-1.617.223-2.197.668-.575.44-.862 1.008-.862 1.705 0 .545.208.99.624 1.336.416.34 1.093.63 2.03.87l1.372.352c1.277.322 2.2.747 2.768 1.274.569.527.853 1.23.853 2.11 0 1.113-.416 2.006-1.248 2.68-.832.668-1.949 1.002-3.349 1.002-1.324 0-2.414-.334-3.27-1.002-.855-.674-1.315-1.555-1.38-2.645zM112.404 13h-1.195V.317h1.195v6.575h.07l6.029-6.575h1.521l-5.212 5.608L120.543 13h-1.539l-5.036-6.223-1.564 1.697V13zm19.882 0h-1.204V7.516L126.538.317h1.371l3.753 6.02h.044l3.753-6.02h1.371l-4.544 7.199V13zm12.815 0h-1.195V.317h1.195V13z" fill="#000"/></svg>